<svg width="487" height="75" viewBox="0 0 487 75" fill="none" xmlns="http://www.w3.org/2000/svg">
<path d="M0.173295 73V0.272725H46.7642V11.3168H13.348V31.0611H43.5682V42.1051H13.348V73H0.173295ZM73.4066 74.1009C69.9502 74.1009 66.837 73.4853 64.0671 72.2543C61.3209 70.9995 59.1429 69.1529 57.533 66.7145C55.9469 64.276 55.1538 61.2694 55.1538 57.6946C55.1538 54.617 55.7219 52.072 56.8583 50.0597C57.9947 48.0473 59.5453 46.4375 61.5103 45.2301C63.4753 44.0227 65.6888 43.1113 68.1509 42.4957C70.6367 41.8565 73.2054 41.3949 75.8569 41.1108C79.0529 40.7794 81.6452 40.4834 83.6339 40.223C85.6225 39.9389 87.0666 39.5128 87.9663 38.9446C88.8896 38.3527 89.3512 37.4413 89.3512 36.2102V35.9972C89.3512 33.322 88.5581 31.2505 86.9719 29.7827C85.3858 28.3149 83.1012 27.581 80.1183 27.581C76.9696 27.581 74.4719 28.2675 72.6254 29.6406C70.8024 31.0137 69.5714 32.6354 68.9322 34.5057L56.9293 32.8011C57.8763 29.4867 59.4388 26.7169 61.6168 24.4915C63.7949 22.2424 66.4582 20.5616 69.6069 19.4489C72.7556 18.3125 76.2357 17.7443 80.0472 17.7443C82.6751 17.7443 85.2911 18.0521 87.8952 18.6676C90.4994 19.2831 92.8787 20.3011 95.033 21.7216C97.1874 23.1184 98.9156 25.0241 100.218 27.4389C101.543 29.8537 102.206 32.8722 102.206 36.4943V73H89.8484V65.5071H89.4222C88.641 67.0223 87.5401 68.4427 86.1197 69.7685C84.7229 71.0705 82.9592 72.1241 80.8285 72.929C78.7215 73.7102 76.2475 74.1009 73.4066 74.1009ZM76.7447 64.6548C79.3252 64.6548 81.5624 64.1458 83.4563 63.1278C85.3503 62.0862 86.8062 60.7131 87.8242 59.0085C88.8659 57.304 89.3867 55.4455 89.3867 53.4332V47.0057C88.9843 47.3371 88.2977 47.6449 87.3271 47.929C86.3801 48.2131 85.3147 48.4616 84.131 48.6747C82.9473 48.8878 81.7754 49.0772 80.6154 49.2429C79.4554 49.4086 78.4492 49.5507 77.5969 49.669C75.6793 49.9294 73.963 50.3556 72.4478 50.9474C70.9326 51.5393 69.7371 52.3679 68.8612 53.4332C67.9852 54.4749 67.5472 55.8243 67.5472 57.4815C67.5472 59.849 68.4113 61.6364 70.1396 62.8438C71.8678 64.0511 74.0695 64.6548 76.7447 64.6548ZM158.243 32.8722L146.525 34.1506C146.193 32.9669 145.613 31.8542 144.784 30.8125C143.98 29.7708 142.891 28.9304 141.517 28.2912C140.144 27.652 138.463 27.3324 136.475 27.3324C133.8 27.3324 131.551 27.9124 129.728 29.0724C127.928 30.2325 127.041 31.7358 127.064 33.5824C127.041 35.1686 127.621 36.4588 128.804 37.4531C130.012 38.4474 132 39.2642 134.77 39.9034L144.074 41.892C149.235 43.0047 153.07 44.7685 155.58 47.1832C158.113 49.598 159.391 52.7585 159.415 56.6648C159.391 60.0975 158.385 63.1278 156.397 65.7557C154.432 68.3598 151.697 70.3958 148.194 71.8636C144.69 73.3314 140.665 74.0653 136.12 74.0653C129.444 74.0653 124.069 72.6686 119.998 69.875C115.926 67.0578 113.499 63.1397 112.718 58.1207L125.253 56.9134C125.821 59.3755 127.029 61.2339 128.875 62.4886C130.722 63.7434 133.125 64.3707 136.084 64.3707C139.138 64.3707 141.588 63.7434 143.435 62.4886C145.305 61.2339 146.24 59.6832 146.24 57.8366C146.24 56.2741 145.637 54.9839 144.429 53.9659C143.246 52.9479 141.399 52.1667 138.89 51.6222L129.586 49.669C124.354 48.58 120.483 46.7453 117.973 44.1648C115.464 41.5606 114.221 38.2699 114.245 34.2926C114.221 30.9309 115.132 28.0189 116.979 25.5568C118.849 23.071 121.442 21.1534 124.756 19.804C128.094 18.4309 131.941 17.7443 136.297 17.7443C142.689 17.7443 147.72 19.1056 151.39 21.8281C155.083 24.5507 157.367 28.232 158.243 32.8722ZM197.252 18.4545V28.3977H165.896V18.4545H197.252ZM173.637 5.38636H186.493V56.5938C186.493 58.322 186.753 59.6477 187.274 60.571C187.818 61.4706 188.529 62.0862 189.404 62.4176C190.28 62.7491 191.251 62.9148 192.316 62.9148C193.121 62.9148 193.855 62.8556 194.518 62.7372C195.205 62.6188 195.725 62.5123 196.081 62.4176L198.247 72.4673C197.56 72.7041 196.578 72.9645 195.299 73.2486C194.045 73.5327 192.506 73.6984 190.683 73.7457C187.463 73.8404 184.563 73.3551 181.983 72.2898C179.402 71.2008 177.354 69.5199 175.839 67.2472C174.348 64.9744 173.614 62.1335 173.637 58.7244V5.38636ZM209.744 0.272725H225.866L247.457 52.9716H248.309L269.9 0.272725H286.022V73H273.38V23.0355H272.705L252.606 72.7869H243.16L223.06 22.929H222.386V73H209.744V0.272725ZM323.948 74.0653C318.479 74.0653 313.756 72.929 309.779 70.6562C305.826 68.3598 302.783 65.1165 300.653 60.9261C298.522 56.7121 297.457 51.7524 297.457 46.0469C297.457 40.4361 298.522 35.5118 300.653 31.2741C302.807 27.0128 305.814 23.6984 309.673 21.331C313.531 18.9399 318.065 17.7443 323.273 17.7443C326.635 17.7443 329.808 18.2888 332.79 19.3778C335.797 20.4432 338.449 22.1004 340.745 24.3494C343.065 26.5985 344.888 29.4631 346.214 32.9432C347.54 36.3996 348.202 40.5189 348.202 45.3011V49.2429H303.494V40.5781H335.88C335.856 38.116 335.324 35.9261 334.282 34.0085C333.24 32.0672 331.784 30.5402 329.914 29.4276C328.067 28.3149 325.913 27.7585 323.451 27.7585C320.823 27.7585 318.515 28.3977 316.526 29.6761C314.538 30.9309 312.987 32.5881 311.874 34.6477C310.785 36.6837 310.229 38.9209 310.205 41.3594V48.9233C310.205 52.0956 310.785 54.8182 311.945 57.0909C313.105 59.34 314.727 61.0682 316.81 62.2756C318.894 63.4593 321.332 64.0511 324.126 64.0511C325.996 64.0511 327.689 63.7907 329.204 63.2699C330.719 62.7254 332.033 61.9323 333.146 60.8906C334.258 59.849 335.099 58.5587 335.667 57.0199L347.67 58.3693C346.912 61.5417 345.468 64.3116 343.337 66.679C341.23 69.0227 338.531 70.8456 335.241 72.1477C331.95 73.4261 328.186 74.0653 323.948 74.0653ZM374.774 74.1009C371.317 74.1009 368.204 73.4853 365.434 72.2543C362.688 70.9995 360.51 69.1529 358.9 66.7145C357.314 64.276 356.521 61.2694 356.521 57.6946C356.521 54.617 357.089 52.072 358.225 50.0597C359.362 48.0473 360.913 46.4375 362.877 45.2301C364.842 44.0227 367.056 43.1113 369.518 42.4957C372.004 41.8565 374.573 41.3949 377.224 41.1108C380.42 40.7794 383.012 40.4834 385.001 40.223C386.99 39.9389 388.434 39.5128 389.333 38.9446C390.257 38.3527 390.718 37.4413 390.718 36.2102V35.9972C390.718 33.322 389.925 31.2505 388.339 29.7827C386.753 28.3149 384.468 27.581 381.485 27.581C378.337 27.581 375.839 28.2675 373.993 29.6406C372.17 31.0137 370.939 32.6354 370.299 34.5057L358.297 32.8011C359.243 29.4867 360.806 26.7169 362.984 24.4915C365.162 22.2424 367.825 20.5616 370.974 19.4489C374.123 18.3125 377.603 17.7443 381.414 17.7443C384.042 17.7443 386.658 18.0521 389.262 18.6676C391.867 19.2831 394.246 20.3011 396.4 21.7216C398.555 23.1184 400.283 25.0241 401.585 27.4389C402.911 29.8537 403.574 32.8722 403.574 36.4943V73H391.216V65.5071H390.789C390.008 67.0223 388.907 68.4427 387.487 69.7685C386.09 71.0705 384.326 72.1241 382.196 72.929C380.089 73.7102 377.615 74.1009 374.774 74.1009ZM378.112 64.6548C380.692 64.6548 382.93 64.1458 384.824 63.1278C386.717 62.0862 388.173 60.7131 389.191 59.0085C390.233 57.304 390.754 55.4455 390.754 53.4332V47.0057C390.351 47.3371 389.665 47.6449 388.694 47.929C387.747 48.2131 386.682 48.4616 385.498 48.6747C384.315 48.8878 383.143 49.0772 381.983 49.2429C380.823 49.4086 379.816 49.5507 378.964 49.669C377.047 49.9294 375.33 50.3556 373.815 50.9474C372.3 51.5393 371.104 52.3679 370.228 53.4332C369.352 54.4749 368.914 55.8243 368.914 57.4815C368.914 59.849 369.779 61.6364 371.507 62.8438C373.235 64.0511 375.437 64.6548 378.112 64.6548ZM429.355 0.272725V73H416.5V0.272725H429.355ZM485.685 32.8722L473.966 34.1506C473.634 32.9669 473.054 31.8542 472.226 30.8125C471.421 29.7708 470.332 28.9304 468.959 28.2912C467.586 27.652 465.905 27.3324 463.916 27.3324C461.241 27.3324 458.992 27.9124 457.169 29.0724C455.37 30.2325 454.482 31.7358 454.506 33.5824C454.482 35.1686 455.062 36.4588 456.246 37.4531C457.453 38.4474 459.442 39.2642 462.212 39.9034L471.516 41.892C476.677 43.0047 480.512 44.7685 483.021 47.1832C485.554 49.598 486.833 52.7585 486.857 56.6648C486.833 60.0975 485.827 63.1278 483.838 65.7557C481.873 68.3598 479.139 70.3958 475.635 71.8636C472.131 73.3314 468.107 74.0653 463.561 74.0653C456.885 74.0653 451.511 72.6686 447.439 69.875C443.367 67.0578 440.94 63.1397 440.159 58.1207L452.695 56.9134C453.263 59.3755 454.47 61.2339 456.317 62.4886C458.163 63.7434 460.566 64.3707 463.526 64.3707C466.58 64.3707 469.03 63.7434 470.876 62.4886C472.747 61.2339 473.682 59.6832 473.682 57.8366C473.682 56.2741 473.078 54.9839 471.871 53.9659C470.687 52.9479 468.84 52.1667 466.331 51.6222L457.027 49.669C451.795 48.58 447.924 46.7453 445.415 44.1648C442.905 41.5606 441.662 38.2699 441.686 34.2926C441.662 30.9309 442.574 28.0189 444.42 25.5568C446.291 23.071 448.883 21.1534 452.197 19.804C455.536 18.4309 459.383 17.7443 463.739 17.7443C470.131 17.7443 475.161 19.1056 478.831 21.8281C482.524 24.5507 484.809 28.232 485.685 32.8722Z" fill="#0C9488"/>
</svg>
